HIERARCHY
ROOT hip
{
  OFFSET -2.79859 82.5482 -16.1802
  CHANNELS 6 Xposition Yposition Zposition Zrotation Xrotation Yrotation
  JOINT abdomen
  {
    OFFSET 0 20.6881 -0.73152
    CHANNELS 3 Zrotation Xrotation Yrotation
    JOINT chest
    {
      OFFSET 0 11.7043 -0.48768
      CHANNELS 3 Zrotation Xrotation Yrotation
      JOINT neck
      {
        OFFSET 0 22.1894 -2.19456
        CHANNELS 3 Zrotation Xrotation Yrotation
        JOINT head
        {
          OFFSET -0.24384 7.07133 1.2192
          CHANNELS 3 Zrotation Xrotation Yrotation
          JOINT leftEye
          {
            OFFSET 4.14528 8.04674 8.04672
            CHANNELS 3 Zrotation Xrotation Yrotation
            End Site
            {
              OFFSET 1 0 0
            }
          }
          JOINT rightEye
          {
            OFFSET -3.6576 8.04674 8.04672
            CHANNELS 3 Zrotation Xrotation Yrotation
            End Site
            {
              OFFSET 1 0 0
            }
          }
        }
      }
      JOINT rCollar
      {
        OFFSET -2.68224 19.2634 -4.8768
        CHANNELS 3 Zrotation Xrotation Yrotation
        JOINT rShldr
        {
          OFFSET -8.77824 -1.95073 1.46304
          CHANNELS 3 Zrotation Xrotation Yrotation
          JOINT rForeArm
          {
            OFFSET -28.1742 -1.7115 0.48768
            CHANNELS 3 Zrotation Xrotation Yrotation
            JOINT rHand
            {
              OFFSET -22.5879 0.773209 7.07136
              CHANNELS 3 Zrotation Xrotation Yrotation
              JOINT rThumb1
              {
                OFFSET -1.2192 -0.487915 3.41376
                CHANNELS 3 Zrotation Xrotation Yrotation
                JOINT rThumb2
                {
                  OFFSET -3.37035 -0.52449 3.41376
                  CHANNELS 3 Zrotation Xrotation Yrotation
                  End Site
                  {
                    OFFSET -1.78271 -1.18214 1.43049
                  }
                }
              }
              JOINT rIndex1
              {
                OFFSET -7.75947 0.938293 5.60832
                CHANNELS 3 Zrotation Xrotation Yrotation
                JOINT rIndex2
                {
                  OFFSET -2.54057 -0.884171 1.56538
                  CHANNELS 3 Zrotation Xrotation Yrotation
                  End Site
                  {
                    OFFSET -1.62519 -0.234802 1.16502
                  }
                }
              }
              JOINT rMid1
              {
                OFFSET -8.24714 1.18213 3.41376
                CHANNELS 3 Zrotation Xrotation Yrotation
                JOINT rMid2
                {
                  OFFSET -3.10165 -0.590103 1.0647
                  CHANNELS 3 Zrotation Xrotation Yrotation
                  End Site
                  {
                    OFFSET -2.48547 -0.328903 0.83742
                  }
                }
              }
              JOINT rRing1
              {
                OFFSET -8.82822 0.546677 1.51678
                CHANNELS 3 Zrotation Xrotation Yrotation
                JOINT rRing2
                {
                  OFFSET -2.60934 -0.819778 -0.0198488
                  CHANNELS 3 Zrotation Xrotation Yrotation
                  End Site
                  {
                    OFFSET -2.33842 -0.294052 0.168128
                  }
                }
              }
              JOINT rPinky1
              {
                OFFSET -8.27202 -0.0477905 -0.4584
                CHANNELS 3 Zrotation Xrotation Yrotation
                JOINT rPinky2
                {
                  OFFSET -1.82734 -0.647385 -0.700984
                  CHANNELS 3 Zrotation Xrotation Yrotation
                  End Site
                  {
                    OFFSET -1.69225 -0.51767 -0.607171
                  }
                }
              }
            }
          }
        }
      }
      JOINT lCollar
      {
        OFFSET 2.68224 19.2634 -4.8768
        CHANNELS 3 Zrotation Xrotation Yrotation
        JOINT lShldr
        {
          OFFSET 8.77824 -1.95073 1.46304
          CHANNELS 3 Zrotation Xrotation Yrotation
          JOINT lForeArm
          {
            OFFSET 28.1742 -1.7115 0.48768
            CHANNELS 3 Zrotation Xrotation Yrotation
            JOINT lHand
            {
              OFFSET 22.5879 0.773209 7.07136
              CHANNELS 3 Zrotation Xrotation Yrotation
              JOINT lThumb1
              {
                OFFSET 1.2192 -0.487915 3.41376
                CHANNELS 3 Zrotation Xrotation Yrotation
                JOINT lThumb2
                {
                  OFFSET 3.37035 -0.52449 3.41376
                  CHANNELS 3 Zrotation Xrotation Yrotation
                  End Site
                  {
                    OFFSET 1.78271 -1.18214 1.43049
                  }
                }
              }
              JOINT lIndex1
              {
                OFFSET 7.75947 0.938293 5.60832
                CHANNELS 3 Zrotation Xrotation Yrotation
                JOINT lIndex2
                {
                  OFFSET 2.54057 -0.884171 1.56538
                  CHANNELS 3 Zrotation Xrotation Yrotation
                  End Site
                  {
                    OFFSET 1.62519 -0.234802 1.16502
                  }
                }
              }
              JOINT lMid1
              {
                OFFSET 8.24714 1.18213 3.41376
                CHANNELS 3 Zrotation Xrotation Yrotation
                JOINT lMid2
                {
                  OFFSET 3.10165 -0.590103 1.0647
                  CHANNELS 3 Zrotation Xrotation Yrotation
                  End Site
                  {
                    OFFSET 2.48547 -0.328903 0.83742
                  }
                }
              }
              JOINT lRing1
              {
                OFFSET 8.82822 0.546677 1.51678
                CHANNELS 3 Zrotation Xrotation Yrotation
                JOINT lRing2
                {
                  OFFSET 2.60934 -0.819778 -0.0198488
                  CHANNELS 3 Zrotation Xrotation Yrotation
                  End Site
                  {
                    OFFSET 2.33842 -0.294052 0.168128
                  }
                }
              }
              JOINT lPinky1
              {
                OFFSET 8.27202 -0.0477905 -0.4584
                CHANNELS 3 Zrotation Xrotation Yrotation
                JOINT lPinky2
                {
                  OFFSET 1.82734 -0.647385 -0.700984
                  CHANNELS 3 Zrotation Xrotation Yrotation
                  End Site
                  {
                    OFFSET 1.69225 -0.51767 -0.607171
                  }
                }
              }
            }
          }
        }
      }
    }
  }
  JOINT rButtock
  {
    OFFSET -8.77824 4.35084 1.2192
    CHANNELS 3 Zrotation Xrotation Yrotation
    JOINT rThigh
    {
      OFFSET 0 -1.70687 -2.19456
      CHANNELS 3 Zrotation Xrotation Yrotation
      JOINT rShin
      {
        OFFSET 0 -36.8199 0.73152
        CHANNELS 3 Zrotation Xrotation Yrotation
        JOINT rFoot
        {
          OFFSET 0.73152 -45.1104 -5.12064
          CHANNELS 3 Zrotation Xrotation Yrotation
          End Site
          {
            OFFSET -1.1221 -3.69964 12.103
          }
        }
      }
    }
  }
  JOINT lButtock
  {
    OFFSET 8.77824 4.35084 1.2192
    CHANNELS 3 Zrotation Xrotation Yrotation
    JOINT lThigh
    {
      OFFSET 0 -1.70687 -2.19456
      CHANNELS 3 Zrotation Xrotation Yrotation
      JOINT lShin
      {
        OFFSET 0 -36.8199 0.73152
        CHANNELS 3 Zrotation Xrotation Yrotation
        JOINT lFoot
        {
          OFFSET -0.73152 -45.1104 -5.12064
          CHANNELS 3 Zrotation Xrotation Yrotation
          End Site
          {
            OFFSET 1.1221 -3.69964 12.103
          }
        }
      }
    }
  }
}
MOTION
Frames:	7
Frame Time:	0.00833333
4.57945 84.1002 -10.6927 1.15514 0.00311849 -0.0216558 -1.51926 -0.00282954 -0.0413934 -0.418698 0.0010259 -0.0725111 -4.30273e-014 0 2.73329e-016 -1.29095e-013 3.18055e-015 8.91425e-016 -0 0 0 -0 0 0 -2.15707e-014 -9.04626e-017 3.47873e-016 -4.52564e-013 -1.963e-015 1.78906e-015 -7.80682e-012 2.27151e-012 1.55847e-013 -8.93495e-011 -2.67944e-012 3.88028e-013 -2.10759e-010 -8.83121e-013 1.20861e-012 -3.63981e-010 -1.52667e-012 2.10155e-012 -2.10757e-010 -8.84989e-013 1.19589e-012 7.73091 5.47488 0.417314 -2.1076e-010 -8.83995e-013 1.21815e-012 2.90554 0.965183 0.102902 -2.10757e-010 -8.83797e-013 1.21338e-012 10.2786 0.731801 0.0259123 -2.10765e-010 -8.80616e-013 1.22451e-012 2.22167 -0.733487 -0.20892 -2.17658e-014 -9.27921e-017 -4.96962e-017 -4.54161e-013 -1.76421e-015 7.95139e-016 -7.81129e-012 -2.39516e-012 1.08139e-013 -8.93385e-011 1.99764e-012 4.6118e-013 -2.10739e-010 -8.65172e-013 1.23087e-012 -3.63931e-010 -1.49486e-012 2.11666e-012 -2.10742e-010 -8.67099e-013 1.23724e-012 -7.73091 5.47488 -0.417314 -2.10738e-010 -8.66105e-013 1.22451e-012 -2.90554 0.965183 -0.102902 -2.10739e-010 -8.65409e-013 1.22292e-012 -10.2786 0.731801 -0.0259123 -2.10732e-010 -8.60738e-013 1.21179e-012 -2.22167 -0.733487 0.20892 -2.03217e-016 0 -3.88251e-019 -0.640653 -1.92323 -0.0064344 -0.00925382 -2.07856 -0.0764206 -0.512031 3.99733 0.140294 2.03217e-016 0 3.88251e-019 -1.66985 -6.49781 0.154703 -0.00230979 6.20797 -0.0679759 0.534169 0.285501 -0.0665826 
4.26893 82.5168 -13.372 1.09383 2.47641 -0.935469 -2.52626 -2.32732 -0.223683 1.69618 0.852433 -0.156771 -0.151589 -1.35695 0.024889 -1.37783 -0.969551 0.060044 -0 0 0 -0 0 0 -1.5441e-014 3.59589e-014 1.19197e-014 20.5653 6.55121 1.02448 -3.92619 -1.72927 6.19034 0.019052 -3.06257 -0.428197 -1.69701e-010 5.43461e-011 -1.44636e-010 -2.92072e-010 9.21273e-011 -2.50107e-010 -1.69699e-010 5.43454e-011 -1.4465e-010 7.73091 5.47488 0.417314 -1.69702e-010 5.4346e-011 -1.44631e-010 2.90554 0.965183 0.102902 -1.69698e-010 5.43461e-011 -1.44634e-010 10.2786 0.731801 0.0259123 -1.69708e-010 5.43497e-011 -1.44625e-010 2.22167 -0.733487 -0.20892 -1.56644e-014 3.59545e-014 1.15163e-014 -23.1909 0.454271 -1.20164 3.00448 -1.18898 -4.86669 -8.17728e-005 0.201329 -0.0282943 -1.08908e-010 -1.61383e-010 2.98518e-010 -1.87284e-010 -2.7962e-010 5.15979e-010 -1.08912e-010 -1.61383e-010 2.98522e-010 -7.73091 5.47488 -0.417314 -1.08907e-010 -1.61383e-010 2.9851e-010 -2.90554 0.965183 -0.102902 -1.0891e-010 -1.61383e-010 2.9851e-010 -10.2786 0.731801 -0.0259123 -1.08902e-010 -1.6138e-010 2.98499e-010 -2.22167 -0.733487 0.20892 -2.03217e-016 0 -3.88251e-019 -0.613872 -6.19843 -0.296652 0.000986573 5.26156 0.0578835 -0.792247 0.395284 -3.44135 2.03217e-016 0 3.88251e-019 -1.57603 -9.82985 0.937038 -0.0145156 11.3415 -0.136531 0.503429 -2.77168 -0.469201 
4.2704 82.517 -13.3663 1.11292 5.0888 -1.9074 -3.60421 -4.78706 -0.416184 3.93145 1.75237 -0.245495 -0.30966 -2.79311 0.0505788 -2.83008 -1.99291 0.122085 -0 0 0 -0 0 0 -9.24927e-015 7.45568e-014 2.5665e-014 42.0489 13.471 2.15089 -7.67585 -3.49198 12.7569 -0.0108615 -6.30124 -0.885183 -1.30382e-010 1.11655e-010 -2.99709e-010 -2.2311e-010 1.89198e-010 -5.18324e-010 -1.30381e-010 1.11656e-010 -2.99724e-010 7.73091 5.47488 0.417314 -1.30384e-010 1.11656e-010 -2.99709e-010 2.90554 0.965183 0.102902 -1.30379e-010 1.11656e-010 -2.9971e-010 10.2786 0.731801 0.0259123 -1.30391e-010 1.1166e-010 -2.99703e-010 2.22167 -0.733487 -0.20892 -9.5054e-015 7.455e-014 2.52519e-014 -47.6825 0.933144 -2.47276 5.96201 -2.41738 -10.0184 4.79579e-005 0.412168 -0.0579264 5.21888e-013 -3.51628e-010 6.2182e-010 2.55859e-012 -6.09225e-010 1.07483e-009 5.17239e-013 -3.51627e-010 6.2182e-010 -7.73091 5.47488 -0.417314 5.21763e-013 -3.51627e-010 6.21809e-010 -2.90554 0.965183 -0.102902 5.17864e-013 -3.51628e-010 6.21811e-010 -10.2786 0.731801 -0.0259123 5.25607e-013 -3.51626e-010 6.218e-010 -2.22167 -0.733487 0.20892 -2.03217e-016 0 -3.88251e-019 -0.631728 -10.7161 -0.610242 -0.0262966 13.0191 0.204529 -1.5771 -3.38264 -7.23924 2.03217e-016 0 3.88251e-019 -1.374 -13.3488 1.78257 -0.0135098 16.7697 -0.213014 0.424315 -6.00271 -0.895701 
4.28466 82.5179 -13.3658 1.20948 7.41531 -2.78377 -4.58495 -6.976 -0.592093 5.93347 2.55522 -0.325562 -0.451222 -4.07086 0.0748349 -4.12738 -2.90864 0.180339 -0 0 0 -0 0 0 -3.18153e-015 1.08058e-013 3.50634e-014 60.9566 19.6277 3.24194 -10.6759 -4.94606 18.6345 -0.0816781 -9.18564 -1.29942 -8.75844e-011 1.64805e-010 -4.36327e-010 -1.48256e-010 2.79435e-010 -7.54525e-010 -8.75836e-011 1.64806e-010 -4.36342e-010 7.73091 5.47488 0.417314 -8.75872e-011 1.64806e-010 -4.3633e-010 2.90554 0.965183 0.102902 -8.758e-011 1.64806e-010 -4.36329e-010 10.2786 0.731801 0.0259123 -8.7595e-011 1.6481e-010 -4.36324e-010 2.22167 -0.733487 -0.20892 -3.46162e-015 1.08049e-013 3.46483e-014 -69.5157 1.36042 -3.60581 8.41384 -3.46414 -14.6242 0.00035124 0.603985 -0.084887 9.47546e-011 -4.82418e-010 8.93093e-010 1.66008e-010 -8.35869e-010 1.5437e-009 9.47492e-011 -4.82416e-010 8.93091e-010 -7.73091 5.47488 -0.417314 9.47537e-011 -4.82417e-010 8.93081e-010 -2.90554 0.965183 -0.102902 9.47485e-011 -4.82418e-010 8.93084e-010 -10.2786 0.731801 -0.0259123 9.47566e-011 -4.82417e-010 8.93073e-010 -2.22167 -0.733487 0.20892 -2.03217e-016 0 -3.88251e-019 -0.694176 -14.7473 -0.901594 -0.086307 19.9415 0.346431 -2.70181 -6.68992 -10.6773 2.03217e-016 0 3.88251e-019 -1.10431 -16.4821 2.56801 0.000762306 21.6083 -0.286581 0.311694 -8.88411 -1.28825 
4.29285 82.5188 -13.3625 1.33089 9.0344 -3.40157 -5.29149 -8.48822 -0.72297 7.3471 3.11538 -0.383739 -0.553868 -4.95259 0.095356 -5.04138 -3.55531 0.228941 -0 0 0 -0 0 0 2.57628e-015 1.28816e-013 3.35946e-014 73.9569 23.9009 4.08543 -12.5752 -5.86018 22.7287 -0.155976 -11.1863 -1.59263 -3.60886e-011 2.07553e-010 -5.26805e-010 -5.86717e-011 3.5259e-010 -9.10689e-010 -3.60874e-011 2.07555e-010 -5.26821e-010 7.73091 5.47488 0.417314 -3.60917e-011 2.07556e-010 -5.26811e-010 2.90554 0.965183 0.102902 -3.60839e-011 2.07555e-010 -5.26809e-010 10.2786 0.731801 0.0259123 -3.60997e-011 2.0756e-010 -5.26805e-010 2.22167 -0.733487 -0.20892 2.29415e-015 1.28807e-013 3.3197e-014 -84.7432 1.66097 -4.39283 10.0219 -4.15471 -17.8425 0.000686703 0.748246 -0.105165 1.50994e-010 -4.64571e-010 1.03429e-009 2.63476e-010 -8.05107e-010 1.78765e-009 1.50989e-010 -4.64569e-010 1.03429e-009 -7.73091 5.47488 -0.417314 1.50993e-010 -4.6457e-010 1.03428e-009 -2.90554 0.965183 -0.102902 1.50987e-010 -4.64571e-010 1.03429e-009 -10.2786 0.731801 -0.0259123 1.50995e-010 -4.64571e-010 1.03427e-009 -2.22167 -0.733487 0.20892 -2.03217e-016 0 -3.88251e-019 -0.772582 -17.5639 -1.11521 -0.150684 24.7765 0.455902 -3.72611 -8.94572 -13.123 2.03217e-016 0 3.88251e-019 -0.867705 -18.6611 3.14841 0.0192627 24.9733 -0.341885 0.206183 -10.8932 -1.58299 
4.26338 82.5165 -13.3649 1.416 9.66654 -3.64375 -5.60727 -9.04996 -0.793524 7.94247 3.33759 -0.412758 -0.601212 -5.27836 0.111971 -5.43176 -3.83332 0.265343 -0 0 0 -0 0 0 8.93896e-015 1.39207e-013 1.212e-014 78.9437 25.5594 4.46946 -13.2561 -6.176 24.2861 -0.190269 -11.9539 -1.70671 3.16824e-011 2.82817e-010 -5.93378e-010 5.87972e-011 4.83252e-010 -1.02495e-009 3.16849e-011 2.82818e-010 -5.93394e-010 7.73091 5.47488 0.417314 3.16793e-011 2.82819e-010 -5.93385e-010 2.90554 0.965183 0.102902 3.16866e-011 2.82819e-010 -5.93382e-010 10.2786 0.731801 0.0259123 3.16719e-011 2.82823e-010 -5.93378e-010 2.22167 -0.733487 -0.20892 8.68826e-015 1.39202e-013 1.17741e-014 -90.7474 1.78107 -4.6959 10.6296 -4.41495 -19.1049 0.000883116 0.821115 -0.115409 1.48661e-010 -1.45289e-010 1.02531e-009 2.59313e-010 -2.52385e-010 1.77169e-009 1.48657e-010 -1.45288e-010 1.02531e-009 -7.73091 5.47488 -0.417314 1.4866e-010 -1.45289e-010 1.0253e-009 -2.90554 0.965183 -0.102902 1.48654e-010 -1.4529e-010 1.0253e-009 -10.2786 0.731801 -0.0259123 1.48662e-010 -1.45291e-010 1.02529e-009 -2.22167 -0.733487 0.20892 -2.03217e-016 0 -3.88251e-019 -0.835186 -18.6827 -1.2084 -0.181741 26.6945 0.502477 -4.18564 -9.82937 -14.0972 2.03217e-016 0 3.88251e-019 -0.773649 -19.5082 3.42244 0.0294223 26.2723 -0.364396 0.149213 -11.6845 -1.74533 
4.25041 82.5158 -13.3684 1.45705 9.59529 -3.61359 -5.63996 -8.933 -0.81998 7.95241 3.31832 -0.420822 -0.609493 -5.20707 0.125687 -5.44814 -3.84762 0.292916 -0 0 0 -0 0 0 1.56842e-014 1.41838e-013 -2.34162e-014 78.2783 25.3562 4.48596 -13.1368 -6.10895 24.0227 -0.185423 -11.841 -1.68992 1.10883e-010 3.79063e-010 -6.40938e-010 1.95838e-010 6.51114e-010 -1.10595e-009 1.10888e-010 3.79062e-010 -6.40954e-010 7.73091 5.47488 0.417314 1.1088e-010 3.79066e-010 -6.40944e-010 2.90554 0.965183 0.102902 1.10886e-010 3.79065e-010 -6.40942e-010 10.2786 0.731801 0.0259123 1.10874e-010 3.79069e-010 -6.40936e-010 2.22167 -0.733487 -0.20892 1.54887e-014 1.41838e-013 -2.36864e-014 -90.1674 1.77296 -4.65307 10.5635 -4.38722 -18.9663 0.000930655 0.843219 -0.118516 1.04747e-010 3.84858e-010 9.0753e-010 1.82997e-010 6.6547e-010 1.56747e-009 1.04745e-010 3.84857e-010 9.07536e-010 -7.73091 5.47488 -0.417314 1.04746e-010 3.84858e-010 9.07525e-010 -2.90554 0.965183 -0.102902 1.04739e-010 3.84857e-010 9.07524e-010 -10.2786 0.731801 -0.0259123 1.04747e-010 3.84856e-010 9.07519e-010 -2.22167 -0.733487 0.20892 -2.03217e-016 0 -3.88251e-019 -0.874908 -18.5891 -1.21078 -0.178477 26.5286 0.498303 -4.142 -9.76227 -13.9961 2.03217e-016 0 3.88251e-019 -0.805258 -19.406 3.46725 0.0299438 26.0958 -0.361397 0.137904 -11.6061 -1.8095 
